HIERARCHY
ROOT hip
{
  OFFSET 0 0 0
  CHANNELS 6 Xposition Yposition Zposition Zrotation Yrotation Xrotation
  JOINT abdomen
  {
    OFFSET 0 20.6881 -0.73152
    CHANNELS 3 Zrotation Xrotation Yrotation
    JOINT chest
    {
      OFFSET 0 11.7043 -0.48768
      CHANNELS 3 Zrotation Xrotation Yrotation
      JOINT neck
      {
        OFFSET 0 22.1894 -2.19456
        CHANNELS 3 Zrotation Xrotation Yrotation
        JOINT head
        {
          OFFSET -0.24384 7.07133 1.2192
          CHANNELS 3 Zrotation Xrotation Yrotation
          JOINT leftEye
          {
            OFFSET 4.14528 8.04674 8.04672
            CHANNELS 3 Zrotation Xrotation Yrotation
            End Site
            {
              OFFSET 1 0 0
            }
          }
          JOINT rightEye
          {
            OFFSET -3.6576 8.04674 8.04672
            CHANNELS 3 Zrotation Xrotation Yrotation
            End Site
            {
              OFFSET 1 0 0
            }
          }
        }
      }
      JOINT rCollar
      {
        OFFSET -2.68224 19.2634 -4.8768
        CHANNELS 3 Zrotation Xrotation Yrotation
        JOINT rShldr
        {
          OFFSET -8.77824 -1.95073 1.46304
          CHANNELS 3 Zrotation Xrotation Yrotation
          JOINT rForeArm
          {
            OFFSET -28.1742 -1.7115 0.48768
            CHANNELS 3 Zrotation Xrotation Yrotation
            JOINT rHand
            {
              OFFSET -22.5879 0.773209 7.07136
              CHANNELS 3 Zrotation Xrotation Yrotation
              JOINT rThumb1
              {
                OFFSET -1.2192 -0.487915 3.41376
                CHANNELS 3 Zrotation Xrotation Yrotation
                JOINT rThumb2
                {
                  OFFSET -3.37035 -0.52449 3.41376
                  CHANNELS 3 Zrotation Xrotation Yrotation
                  End Site
                  {
                    OFFSET -1.78271 -1.18214 1.43049
                  }
                }
              }
              JOINT rIndex1
              {
                OFFSET -7.75947 0.938293 5.60832
                CHANNELS 3 Zrotation Xrotation Yrotation
                JOINT rIndex2
                {
                  OFFSET -2.54057 -0.884171 1.56538
                  CHANNELS 3 Zrotation Xrotation Yrotation
                  End Site
                  {
                    OFFSET -1.62519 -0.234802 1.16502
                  }
                }
              }
              JOINT rMid1
              {
                OFFSET -8.24714 1.18213 3.41376
                CHANNELS 3 Zrotation Xrotation Yrotation
                JOINT rMid2
                {
                  OFFSET -3.10165 -0.590103 1.0647
                  CHANNELS 3 Zrotation Xrotation Yrotation
                  End Site
                  {
                    OFFSET -2.48547 -0.328903 0.83742
                  }
                }
              }
              JOINT rRing1
              {
                OFFSET -8.82822 0.546677 1.51678
                CHANNELS 3 Zrotation Xrotation Yrotation
                JOINT rRing2
                {
                  OFFSET -2.60934 -0.819778 -0.0198488
                  CHANNELS 3 Zrotation Xrotation Yrotation
                  End Site
                  {
                    OFFSET -2.33842 -0.294052 0.168128
                  }
                }
              }
              JOINT rPinky1
              {
                OFFSET -8.27202 -0.0477905 -0.4584
                CHANNELS 3 Zrotation Xrotation Yrotation
                JOINT rPinky2
                {
                  OFFSET -1.82734 -0.647385 -0.700984
                  CHANNELS 3 Zrotation Xrotation Yrotation
                  End Site
                  {
                    OFFSET -1.69225 -0.51767 -0.607171
                  }
                }
              }
            }
          }
        }
      }
      JOINT lCollar
      {
        OFFSET 2.68224 19.2634 -4.8768
        CHANNELS 3 Zrotation Xrotation Yrotation
        JOINT lShldr
        {
          OFFSET 8.77824 -1.95073 1.46304
          CHANNELS 3 Zrotation Xrotation Yrotation
          JOINT lForeArm
          {
            OFFSET 28.1742 -1.7115 0.48768
            CHANNELS 3 Zrotation Xrotation Yrotation
            JOINT lHand
            {
              OFFSET 22.5879 0.773209 7.07136
              CHANNELS 3 Zrotation Xrotation Yrotation
              JOINT lThumb1
              {
                OFFSET 1.2192 -0.487915 3.41376
                CHANNELS 3 Zrotation Xrotation Yrotation
                JOINT lThumb2
                {
                  OFFSET 3.37035 -0.52449 3.41376
                  CHANNELS 3 Zrotation Xrotation Yrotation
                  End Site
                  {
                    OFFSET 1.78271 -1.18214 1.43049
                  }
                }
              }
              JOINT lIndex1
              {
                OFFSET 7.75947 0.938293 5.60832
                CHANNELS 3 Zrotation Xrotation Yrotation
                JOINT lIndex2
                {
                  OFFSET 2.54057 -0.884171 1.56538
                  CHANNELS 3 Zrotation Xrotation Yrotation
                  End Site
                  {
                    OFFSET 1.62519 -0.234802 1.16502
                  }
                }
              }
              JOINT lMid1
              {
                OFFSET 8.24714 1.18213 3.41376
                CHANNELS 3 Zrotation Xrotation Yrotation
                JOINT lMid2
                {
                  OFFSET 3.10165 -0.590103 1.0647
                  CHANNELS 3 Zrotation Xrotation Yrotation
                  End Site
                  {
                    OFFSET 2.48547 -0.328903 0.83742
                  }
                }
              }
              JOINT lRing1
              {
                OFFSET 8.82822 0.546677 1.51678
                CHANNELS 3 Zrotation Xrotation Yrotation
                JOINT lRing2
                {
                  OFFSET 2.60934 -0.819778 -0.0198488
                  CHANNELS 3 Zrotation Xrotation Yrotation
                  End Site
                  {
                    OFFSET 2.33842 -0.294052 0.168128
                  }
                }
              }
              JOINT lPinky1
              {
                OFFSET 8.27202 -0.0477905 -0.4584
                CHANNELS 3 Zrotation Xrotation Yrotation
                JOINT lPinky2
                {
                  OFFSET 1.82734 -0.647385 -0.700984
                  CHANNELS 3 Zrotation Xrotation Yrotation
                  End Site
                  {
                    OFFSET 1.69225 -0.51767 -0.607171
                  }
                }
              }
            }
          }
        }
      }
    }
  }
  JOINT rButtock
  {
    OFFSET -8.77824 4.35084 1.2192
    CHANNELS 3 Zrotation Xrotation Yrotation
    JOINT rThigh
    {
      OFFSET 0 -1.70687 -2.19456
      CHANNELS 3 Zrotation Xrotation Yrotation
      JOINT rShin
      {
        OFFSET 0 -36.8199 0.73152
        CHANNELS 3 Zrotation Xrotation Yrotation
        JOINT rFoot
        {
          OFFSET 0.73152 -45.1104 -5.12064
          CHANNELS 3 Zrotation Xrotation Yrotation
          End Site
          {
            OFFSET -1.1221 -3.69964 12.103
          }
        }
      }
    }
  }
  JOINT lButtock
  {
    OFFSET 8.77824 4.35084 1.2192
    CHANNELS 3 Zrotation Xrotation Yrotation
    JOINT lThigh
    {
      OFFSET 0 -1.70687 -2.19456
      CHANNELS 3 Zrotation Xrotation Yrotation
      JOINT lShin
      {
        OFFSET 0 -36.8199 0.73152
        CHANNELS 3 Zrotation Xrotation Yrotation
        JOINT lFoot
        {
          OFFSET -0.73152 -45.1104 -5.12064
          CHANNELS 3 Zrotation Xrotation Yrotation
          End Site
          {
            OFFSET 1.1221 -3.69964 12.103
          }
        }
      }
    }
  }
}
MOTION
Frames:	9
Frame Time:	0.00833333
-1.07212 47.0365 195.417 -17.5316 -24.1778 15.8302 11.2783 5.68929 4.02683 1.59858 -7.43325 1.0146 -0.48182 12.5645 6.31217 6.48199 -24.8334 13.9886 -0.0 0.0 0.0 -0.0 0.0 0.0 2.27584e-13 5.70095e-13 -2.88725e-13 107.341 46.0176 -57.4535 -27.3565 -42.9794 89.4489 -9.0297 -61.6271 -15.083 2.81345e-09 -4.81933e-09 -1.98118e-10 4.84367e-09 -8.07618e-09 -1.98008e-10 2.81346e-09 -4.81935e-09 -1.98139e-10 7.73091 5.47488 0.417314 2.81345e-09 -4.81933e-09 -1.9813e-10 2.90554 0.965183 0.102902 2.81346e-09 -4.81934e-09 -1.98127e-10 10.2786 0.731801 0.0259123 2.81344e-09 -4.81933e-09 -1.98114e-10 2.22167 -0.733487 -0.20892 2.27493e-13 5.70096e-13 -2.88988e-13 -63.2718 -21.7226 -79.8503 7.48201 -2.73345 -13.1485 12.3378 66.3946 -18.7598 7.3108e-10 -2.78076e-08 3.62916e-09 1.44747e-09 -4.79975e-08 6.18514e-09 7.31077e-10 -2.78076e-08 3.62917e-09 -7.73091 5.47488 -0.417314 7.31078e-10 -2.78076e-08 3.62917e-09 -2.90554 0.965183 -0.102902 7.31075e-10 -2.78076e-08 3.62917e-09 -10.2786 0.731801 -0.0259123 7.31086e-10 -2.78076e-08 3.62917e-09 -2.22167 -0.733487 0.20892 -2.03217e-16 0.0 -3.88251e-19 -11.544 12.5064 -5.27115 0.105535 30.1806 2.61679 -7.89344 -15.6932 -32.7184 2.03217e-16 0.0 3.88251e-19 96.1337 -55.7458 84.9547 5.83444 80.1051 -5.23318 -1.61106 0.294019 -12.8882
-1.08493 46.9911 195.463 -17.5427 -24.1864 15.8421 11.2733 5.65839 4.03502 1.60774 -7.43721 1.01625 -0.471066 12.5664 6.30585 6.42517 -24.8582 13.9648 -0.0 0.0 0.0 -0.0 0.0 0.0 3.5785e-13 8.53979e-13 1.11419e-13 107.345 45.9512 -57.4522 -27.3539 -42.9874 89.4644 -9.00773 -61.5883 -15.0581 2.07712e-09 -3.07586e-09 1.69654e-10 3.55909e-09 -5.09609e-09 4.03749e-10 2.07713e-09 -3.07587e-09 1.69632e-10 7.73091 5.47488 0.417314 2.07712e-09 -3.07586e-09 1.69641e-10 2.90554 0.965183 0.102902 2.07714e-09 -3.07587e-09 1.69644e-10 10.2786 0.731801 0.0259123 2.07712e-09 -3.07585e-09 1.69657e-10 2.22167 -0.733487 -0.20892 3.57798e-13 8.53979e-13 1.1117e-13 -63.2833 -21.7145 -79.8302 7.47963 -2.7324 -13.1438 12.305 66.3559 -18.7241 3.17841e-09 -3.34733e-08 3.45479e-09 5.6313e-09 -5.67741e-08 5.75858e-09 3.17841e-09 -3.34733e-08 3.4548e-09 -7.73091 5.47488 -0.417314 3.17841e-09 -3.34733e-08 3.45479e-09 -2.90554 0.965183 -0.102902 3.1784e-09 -3.34733e-08 3.4548e-09 -10.2786 0.731801 -0.0259123 3.17842e-09 -3.34733e-08 3.4548e-09 -2.22167 -0.733487 0.20892 -2.03217e-16 0.0 -3.88251e-19 -11.5666 12.5418 -5.24298 0.105589 30.1786 2.62136 -7.90312 -15.7096 -32.7321 2.03217e-16 0.0 3.88251e-19 96.2258 -55.725 85.048 5.90635 80.2027 -5.29993 -1.63004 0.212639 -12.8853
-1.09714 46.9463 195.508 -17.5434 -24.2085 15.8434 11.2552 5.64119 4.05773 1.61779 -7.43334 1.02227 -0.445558 12.537 6.29884 6.35488 -24.8507 13.9341 -0.0 0.0 0.0 -0.0 0.0 0.0 4.69995e-13 9.09869e-13 4.16742e-13 107.347 45.8861 -57.4409 -27.3513 -42.9959 89.4806 -8.98435 -61.5469 -15.0315 2.87848e-10 1.76716e-10 4.19187e-10 4.7084e-10 3.7975e-10 7.44944e-10 2.8786e-10 1.76702e-10 4.19166e-10 7.73091 5.47488 0.417314 2.87846e-10 1.76717e-10 4.19176e-10 2.90554 0.965183 0.102902 2.8786e-10 1.76704e-10 4.19179e-10 10.2786 0.731801 0.0259123 2.87842e-10 1.7672e-10 4.19192e-10 2.22167 -0.733487 -0.20892 4.69952e-13 9.09868e-13 4.16507e-13 -63.2828 -21.7053 -79.8172 7.47705 -2.73151 -13.1401 12.3072 66.3585 -18.7265 4.19175e-09 -2.87383e-08 2.3731e-09 7.31079e-09 -4.80909e-08 3.85572e-09 4.19175e-09 -2.87383e-08 2.3731e-09 -7.73091 5.47488 -0.417314 4.19175e-09 -2.87383e-08 2.3731e-09 -2.90554 0.965183 -0.102902 4.19175e-09 -2.87383e-08 2.37311e-09 -10.2786 0.731801 -0.0259123 4.19176e-09 -2.87383e-08 2.37311e-09 -2.22167 -0.733487 0.20892 -2.03217e-16 0.0 -3.88251e-19 -11.6028 12.5651 -5.19702 0.106755 30.196 2.62611 -7.92581 -15.7589 -32.7287 2.03217e-16 0.0 3.88251e-19 96.2973 -55.6927 85.1249 5.9785 80.2989 -5.36732 -1.64639 0.133632 -12.867
-1.1099 46.9047 195.553 -17.5371 -24.2325 15.8424 11.2275 5.63524 4.09214 1.62907 -7.42537 1.03189 -0.40951 12.4867 6.29101 6.27024 -24.8227 13.8968 -0.0 0.0 0.0 -0.0 0.0 0.0 5.77257e-13 8.31765e-13 6.88124e-13 107.35 45.8198 -57.4245 -27.3482 -43.0056 89.4993 -8.95786 -61.4998 -15.0013 -2.27141e-09 4.58299e-09 6.15105e-10 -3.93808e-09 7.7706e-09 9.52758e-10 -2.2714e-09 4.58298e-09 6.15085e-10 7.73091 5.47488 0.417314 -2.27141e-09 4.58299e-09 6.15096e-10 2.90554 0.965183 0.102902 -2.2714e-09 4.58298e-09 6.15099e-10 10.2786 0.731801 0.0259123 -2.27142e-09 4.58299e-09 6.15111e-10 2.22167 -0.733487 -0.20892 5.77208e-13 8.31765e-13 6.87904e-13 -63.274 -21.6945 -79.8098 7.47376 -2.73059 -13.136 12.3303 66.3858 -18.7517 4.4267e-09 -1.75098e-08 6.7806e-10 7.62465e-09 -2.84555e-08 9.44993e-10 4.4267e-09 -1.75098e-08 6.78068e-10 -7.73091 5.47488 -0.417314 4.4267e-09 -1.75098e-08 6.78065e-10 -2.90554 0.965183 -0.102902 4.42669e-09 -1.75098e-08 6.78068e-10 -10.2786 0.731801 -0.0259123 4.42671e-09 -1.75098e-08 6.78066e-10 -2.22167 -0.733487 0.20892 -2.03217e-16 0.0 -3.88251e-19 -11.6494 12.5794 -5.13772 0.108613 30.2283 2.63102 -7.95767 -15.8329 -32.7114 2.03217e-16 0.0 3.88251e-19 96.3524 -55.6527 85.1874 6.0504 80.393 -5.4348 -1.66081 0.0561901 -12.8356
-1.12315 46.8691 195.601 -17.5233 -24.2715 15.8318 11.204 5.62504 4.12248 1.63943 -7.41451 1.04017 -0.374812 12.4339 6.28545 6.19475 -24.7916 13.866 -0.0 0.0 0.0 -0.0 0.0 0.0 6.5941e-13 6.99169e-13 8.9142e-13 107.353 45.7643 -57.4099 -27.3452 -43.0151 89.5177 -8.93079 -61.4515 -14.9705 -4.69821e-09 8.68299e-09 7.4928e-10 -8.11611e-09 1.46387e-08 1.06013e-09 -4.6982e-09 8.68298e-09 7.49263e-10 7.73091 5.47488 0.417314 -4.69821e-09 8.68298e-09 7.49275e-10 2.90554 0.965183 0.102902 -4.69821e-09 8.68298e-09 7.49278e-10 10.2786 0.731801 0.0259123 -4.69822e-09 8.68299e-09 7.49289e-10 2.22167 -0.733487 -0.20892 6.59348e-13 6.99169e-13 8.91212e-13 -63.2656 -21.6888 -79.8059 7.46884 -2.72934 -13.1292 12.3624 66.4236 -18.7868 4.2747e-09 -5.16884e-09 -1.01889e-09 7.27527e-09 -7.05576e-09 -1.94936e-09 4.2747e-09 -5.16884e-09 -1.01888e-09 -7.73091 5.47488 -0.417314 4.2747e-09 -5.16885e-09 -1.01888e-09 -2.90554 0.965183 -0.102902 4.27469e-09 -5.16884e-09 -1.01888e-09 -10.2786 0.731801 -0.0259123 4.27471e-09 -5.16884e-09 -1.01889e-09 -2.22167 -0.733487 0.20892 -2.03217e-16 0.0 -3.88251e-19 -11.6916 12.5972 -5.07417 0.110671 30.2497 2.6355 -7.98989 -15.9082 -32.6933 2.03217e-16 0.0 3.88251e-19 96.4181 -55.6178 85.256 6.12396 80.488 -5.50457 -1.67371 -0.018773 -12.7969
-1.13345 46.8329 195.648 -17.506 -24.289 15.8338 11.1985 5.59511 4.13295 1.64672 -7.40199 1.04217 -0.353332 12.3971 6.28522 6.15185 -24.7748 13.8546 -0.0 0.0 0.0 -0.0 0.0 0.0 6.96229e-13 5.91583e-13 9.92482e-13 107.358 45.7314 -57.4039 -27.3428 -43.023 89.5329 -8.90563 -61.4064 -14.9419 -6.09011e-09 1.10167e-08 8.13589e-10 -1.05117e-08 1.85461e-08 1.10001e-09 -6.0901e-09 1.10167e-08 8.13573e-10 7.73091 5.47488 0.417314 -6.09011e-09 1.10167e-08 8.13586e-10 2.90554 0.965183 0.102902 -6.0901e-09 1.10167e-08 8.13589e-10 10.2786 0.731801 0.0259123 -6.09011e-09 1.10167e-08 8.13599e-10 2.22167 -0.733487 -0.20892 6.96155e-13 5.91583e-13 9.92283e-13 -63.2662 -21.6949 -79.8036 7.46132 -2.72747 -13.1173 12.3914 66.4576 -18.8183 4.12718e-09 2.90381e-09 -2.10632e-09 6.96505e-09 6.92012e-09 -3.80308e-09 4.12718e-09 2.90382e-09 -2.10631e-09 -7.73091 5.47488 -0.417314 4.12719e-09 2.90379e-09 -2.10632e-09 -2.90554 0.965183 -0.102902 4.12718e-09 2.90381e-09 -2.10632e-09 -10.2786 0.731801 -0.0259123 4.12719e-09 2.90381e-09 -2.10633e-09 -2.22167 -0.733487 0.20892 -2.03217e-16 0.0 -3.88251e-19 -11.7147 12.6314 -5.0155 0.112447 30.2343 2.63898 -8.01379 -15.9617 -32.6876 2.03217e-16 0.0 3.88251e-19 96.5213 -55.6008 85.3514 6.20129 80.5868 -5.57901 -1.6855 -0.0903348 -12.7561
-1.14423 46.7943 195.693 -17.5123 -24.2836 15.8596 11.2209 5.53297 4.11314 1.64797 -7.38344 1.0344 -0.350074 12.3803 6.29355 6.15701 -24.7791 13.8731 -0.0 0.0 0.0 -0.0 0.0 0.0 6.80062e-13 5.35208e-13 9.29185e-13 107.366 45.7287 -57.409 -27.3409 -43.029 89.5443 -8.88181 -61.3636 -14.9147 -5.90315e-09 1.06367e-08 7.59362e-10 -1.01876e-08 1.79032e-08 1.0164e-09 -5.90314e-09 1.06367e-08 7.59345e-10 7.73091 5.47488 0.417314 -5.90315e-09 1.06367e-08 7.59359e-10 2.90554 0.965183 0.102902 -5.90315e-09 1.06367e-08 7.59363e-10 10.2786 0.731801 0.0259123 -5.90315e-09 1.06367e-08 7.59372e-10 2.22167 -0.733487 -0.20892 6.79979e-13 5.3521e-13 9.28991e-13 -63.2938 -21.72 -79.8103 7.44814 -2.72421 -13.0946 12.4213 66.4926 -18.851 4.03543e-09 3.54105e-09 -2.15184e-09 6.8046e-09 7.98877e-09 -3.87958e-09 4.03543e-09 3.54106e-09 -2.15183e-09 -7.73091 5.47488 -0.417314 4.03543e-09 3.54104e-09 -2.15184e-09 -2.90554 0.965183 -0.102902 4.03542e-09 3.54105e-09 -2.15184e-09 -10.2786 0.731801 -0.0259123 4.03544e-09 3.54105e-09 -2.15185e-09 -2.22167 -0.733487 0.20892 -2.03217e-16 0.0 -3.88251e-19 -11.7104 12.6907 -4.96576 0.113868 30.1647 2.64113 -8.02637 -15.9881 -32.6952 2.03217e-16 0.0 3.88251e-19 96.6848 -55.6122 85.4909 6.2857 80.6938 -5.66169 -1.69624 -0.159926 -12.711
-1.1527 46.7534 195.735 -17.5235 -24.2555 15.8992 11.2618 5.44965 4.07357 1.64514 -7.35977 1.0202 -0.358087 12.374 6.308 6.19465 -24.7946 13.9123 -0.0 0.0 0.0 -0.0 0.0 0.0 6.22449e-13 4.85976e-13 7.37413e-13 107.376 45.7485 -57.4214 -27.3394 -43.0338 89.5534 -8.85841 -61.3215 -14.8881 -4.71974e-09 8.50768e-09 6.06434e-10 -8.14566e-09 1.43234e-08 8.13331e-10 -4.71974e-09 8.50767e-09 6.06415e-10 7.73091 5.47488 0.417314 -4.71974e-09 8.50768e-09 6.0643e-10 2.90554 0.965183 0.102902 -4.71974e-09 8.50768e-09 6.06434e-10 10.2786 0.731801 0.0259123 -4.71975e-09 8.50768e-09 6.06443e-10 2.22167 -0.733487 -0.20892 6.22357e-13 4.85981e-13 7.37221e-13 -63.3385 -21.7588 -79.8246 7.43072 -2.71994 -13.0641 12.4563 66.5334 -18.8891 3.80837e-09 1.90062e-10 -1.57133e-09 6.44488e-09 2.06157e-09 -2.87961e-09 3.80837e-09 1.9008e-10 -1.57132e-09 -7.73091 5.47488 -0.417314 3.80837e-09 1.90058e-10 -1.57133e-09 -2.90554 0.965183 -0.102902 3.80837e-09 1.90066e-10 -1.57133e-09 -10.2786 0.731801 -0.0259123 3.80838e-09 1.90068e-10 -1.57134e-09 -2.22167 -0.733487 0.20892 -2.03217e-16 0.0 -3.88251e-19 -11.688 12.7666 -4.91957 0.115178 30.0583 2.64232 -8.03252 -15.9995 -32.7098 2.03217e-16 0.0 3.88251e-19 96.8894 -55.6425 85.6601 6.37568 80.8061 -5.7509 -1.7057 -0.227486 -12.6598
-1.15901 46.7095 195.771 -17.5386 -24.2153 15.9452 11.3055 5.36494 4.02978 1.64347 -7.34013 1.00496 -0.371302 12.3761 6.32314 6.24161 -24.8131 13.9554 -0.0 0.0 0.0 -0.0 0.0 0.0 5.3195e-13 4.17984e-13 5.30039e-13 107.387 45.7792 -57.4382 -27.3382 -43.0375 89.5604 -8.83732 -61.2834 -14.864 -3.32696e-09 6.03792e-09 4.49433e-10 -5.74352e-09 1.01734e-08 6.13742e-10 -3.32696e-09 6.03792e-09 4.49412e-10 7.73091 5.47488 0.417314 -3.32696e-09 6.03792e-09 4.49427e-10 2.90554 0.965183 0.102902 -3.32696e-09 6.03792e-09 4.49431e-10 10.2786 0.731801 0.0259123 -3.32696e-09 6.03792e-09 4.4944e-10 2.22167 -0.733487 -0.20892 5.31845e-13 4.17992e-13 5.29845e-13 -63.3676 -21.7987 -79.8307 7.41493 -2.7161 -13.0363 12.4839 66.5655 -18.9192 3.47394e-09 -2.60859e-09 -1.02576e-09 5.89877e-09 -2.95735e-09 -1.93494e-09 3.47394e-09 -2.60858e-09 -1.02575e-09 -7.73091 5.47488 -0.417314 3.47395e-09 -2.60859e-09 -1.02577e-09 -2.90554 0.965183 -0.102902 3.47395e-09 -2.60859e-09 -1.02577e-09 -10.2786 0.731801 -0.0259123 3.47395e-09 -2.60859e-09 -1.02578e-09 -2.22167 -0.733487 0.20892 -2.03217e-16 0.0 -3.88251e-19 -11.6594 12.8455 -4.87176 0.116373 29.9412 2.64299 -8.03539 -15.9983 -32.7342 2.03217e-16 0.0 3.88251e-19 97.0991 -55.6751 85.8313 6.46595 80.9165 -5.84092 -1.71394 -0.289841 -12.6092
